<svg xmlns="http://www.w3.org/2000/svg" width="1920" height="830" viewBox="0 0 1920 830">
  <defs>
    <style>
      .cls-1 {
        fill-rule: evenodd;
      }
    </style>
  </defs>
  <path id="wave-shape.svg" class="cls-1" d="M0,6669.99H1932v818.75s-7.56,5.27-22.18,5.66c-11.11.3-18.76-12.44-30.09-12.92-6.37-.27-8.92,4.97-18.96,6.99-6.45,1.3-14-1.61-22.89-1.17-9.37.47-20.12,4.25-28.52,4.25-13.82,0-42.93-3.03-58.33-3.03-6.95,0-24.89-2.66-42.16-2.71-9.26-.02-21.02,5.61-31.66,5.68-14.89.08-28.79-2.97-34.5-2.97-18.52,0-17,9.66-34.73,10.08-29.63.71-59.05-3.18-87.43-2.9-23.57.22-39.78-5.63-57.35-5.63-21.89,0-38.6,8.6-61.57,8.6-31,0-42.31-10.99-82.05-10.03-22.51.54-44.65,4.33-60.2,4.33-19.18,0-16.78-5.97-36.34-5.71-16.49.21-26.57,8.15-68.04,7.03-19.54-.53-44.66-10.08-62.38-9.87-21.01.26-25.65,5.23-41.22,5.84-19.61.78-14.8,7.2-25.8,6.97-23.03-.5-32.455,2.43-69.17,2.77-26.773.25-25.029-14.24-41.765-14.21-19.659.05-34.056,7.17-53.164,7.17-18.742,0-43.445-5.71-62.906-5.71-27.016,0-38.519,8.51-65.2,8.51-31.279,0-25.453-7.04-56.011-7.04-29.509,0-22.937,9.89-45.537,9.99-14.364.07-68.249-8.72-79.871-8.72-38.514,0-54.933,5.77-91.12,5.77-30.223,0-65.842-5.67-94.042-5.67-26.9,0-77.774,8.51-102.507,8.51-23.718,0-18.13-7.36-41.927-7.24-15.621.07-31.556-6.89-44.457-6.89-10.237,0-21.047,8.73-30.861,8.42-13.87-.43-27.049-6.16-41.327-5.66-12.086.42-18.977,4.09-29.27,4.31-13.609.3-13.9-6.72-22.631-6.62-11.98.13-14.878,13.5-30.71,13.8C2.608,7499.12,0,7488.74,0,7488.74V6669.99Z" transform="translate(0 -6670)"/>
</svg>
